<svg width="73" height="94" viewBox="0 0 73 94" fill="none" xmlns="http://www.w3.org/2000/svg">
<path d="M51.6573 75.2946C53.0392 77.278 54.6982 79.0636 56.2203 80.9263C56.9411 81.811 57.662 82.6956 58.386 83.5368C58.7046 83.9541 60.7484 85.8559 60.579 86.3679C60.4095 86.8799 54.676 87.544 53.9238 87.6626C51.7945 88.0717 49.0326 88.1711 47.1524 89.3422C46.4644 89.7716 46.6538 90.7477 47.4331 90.8497C48.9017 91.0907 50.382 90.5894 51.8493 90.2619C53.4938 89.904 55.1785 89.5928 56.823 89.2349C58.3773 88.9139 62.049 88.9263 62.7139 87.0522C63.3288 85.2619 60.4251 83.1646 59.4162 82.0398C57.2037 79.4696 55.0945 76.6885 52.6452 74.3629C52.0353 73.7489 51.1441 74.5567 51.6573 75.2946Z" fill="#7557D3"/>
<path d="M51.2678 75.8332C53.1008 77.6318 55.4912 78.9911 57.5578 80.5885C59.9125 82.4261 62.2607 84.3507 64.372 86.5198C64.5882 85.9676 64.7642 85.3687 64.9804 84.8164C62.2229 85.4409 59.4784 85.8914 56.697 86.2517C54.0057 86.5751 50.9252 86.2572 48.3319 87.025C47.5733 87.2306 47.2583 88.5187 48.2018 88.7642C50.6911 89.3876 53.7931 88.8327 56.3072 88.5398C59.3495 88.199 62.3646 87.6376 65.3927 86.9022C66.2851 86.6629 66.4968 85.5857 65.7967 85.0087C63.4888 83.1309 61.271 81.2161 58.8696 79.4187C56.716 77.8148 54.4081 75.937 51.8981 75.0059C51.3894 74.793 50.9025 75.4561 51.2678 75.8332Z" fill="#7557D3"/>
<path d="M8.59528 3.34228C5.6842 13.6178 8.26803 25.8347 13.4002 34.963C18.2975 43.724 27.8418 53.4885 38.8892 51.3418C42.927 50.5508 46.4851 47.4066 44.844 43.0428C43.3541 38.9964 38.8767 37.481 34.9912 39.1578C24.6008 43.6272 28.2178 58.9818 32.554 66.4767C35.3027 71.2294 39.1937 75.3243 43.8247 78.294C48.0774 81.0606 53.6637 83.5334 58.8495 83.1781C59.5984 83.103 59.6895 81.8855 58.9601 81.6998C55.1425 80.7147 51.4696 80.1339 47.8845 78.3791C44.1754 76.5277 40.8695 73.9631 38.1277 70.8723C32.6809 64.781 28.2866 55.1395 30.697 46.8814C31.9853 42.5181 37.9669 37.3692 42.083 41.9619C43.7388 43.7909 44.0089 46.6093 41.9625 48.2488C40.0997 49.7709 37.2813 50.041 34.9737 49.9121C25.5757 49.2965 18.1579 40.9154 14.0183 33.1292C11.6784 28.7568 10.0698 23.9583 9.25369 19.0878C8.37986 13.8195 8.7974 8.82267 9.36488 3.57475C9.58107 3.02254 8.76474 2.83029 8.59528 3.34228Z" fill="#7557D3"/>
<path d="M49.1161 75.3671C54.5016 79.3552 59.8904 83.2998 65.226 87.3716C65.3617 86.7259 65.4942 86.1237 65.63 85.478C62.6291 86.434 59.6281 87.39 56.5566 88.1221C53.7523 88.7868 50.5894 88.9874 47.9265 90.0999C47.0679 90.4729 47.4116 91.7228 48.2377 91.7846C51.1943 92.0058 54.5125 90.8986 57.3635 90.1937C60.3514 89.4116 63.3458 88.5426 66.2695 87.4496C67.0346 87.1571 66.9855 86.0604 66.4028 85.667C60.8706 81.8866 55.4318 78.0256 49.9463 74.205C49.156 73.6649 48.3693 74.8303 49.1161 75.3671Z" fill="#7557D3"/>
<path d="M9.28906 0.50911C3.48563 10.8743 4.75006 23.7795 10.9172 33.6848C13.8833 38.4538 17.8177 42.5519 22.239 45.9869C26.7875 49.4752 32.2893 53.0785 38.0459 53.8589C42.0699 54.4223 48.7946 52.7829 48.3186 47.4569C47.8807 42.7896 42.7549 38.2526 38.1864 37.9546C33.0961 37.6175 29.2633 42.0965 28.2631 46.6999C27.1043 52.2534 28.9664 58.3389 31.3478 63.3265C36.5205 74.2504 46.6471 82.6594 58.4106 85.5506C59.5281 85.8091 60.1332 84.1492 59.019 83.8472C50.524 81.6814 42.9796 76.7449 37.5479 69.8676C34.7951 66.3388 32.603 62.3273 31.2163 58.07C29.6143 53.1844 28.5381 47.114 31.9264 42.7329C35.6548 37.8963 41.7377 39.5756 44.994 43.9728C46.8988 46.5638 47.457 49.6223 44.177 51.3882C41.5316 52.8517 38.1533 52.4241 35.4194 51.5638C26.5819 48.7165 18.1099 41.5682 12.9944 33.9713C6.54039 24.3943 4.60751 11.6578 10.2403 1.2361C10.6434 0.522981 9.68893 -0.16053 9.28906 0.50911Z" fill="#7557D3"/>
</svg>
