<svg width="460" height="327" viewBox="0 0 460 327" fill="none" xmlns="http://www.w3.org/2000/svg">
  <g clip-path="url(#clip0_246_4030)">
  <mask id="mask0_246_4030" style="mask-type:alpha" maskUnits="userSpaceOnUse" x="-62" y="-57" width="585" height="384">
  <path d="M499 -57H-38C-51.2548 -57 -62 -46.2548 -62 -33V303C-62 316.255 -51.2548 327 -38 327H499C512.255 327 523 316.255 523 303V-33C523 -46.2548 512.255 -57 499 -57Z" fill="white"/>
  </mask>
  <g mask="url(#mask0_246_4030)">
  <path d="M230.088 0.742188H27.4492C12.2743 0.742188 -0.0273438 13.0438 -0.0273438 28.2187V531.039C-0.0273438 546.214 12.2743 558.515 27.4492 558.515H230.088C245.263 558.515 257.565 546.214 257.565 531.039V28.2187C257.565 13.0438 245.263 0.742188 230.088 0.742188Z" fill="white"/>
  <path d="M230.089 1.42969H27.4493C12.6538 1.42969 0.659668 13.4238 0.659668 28.2193V531.04C0.659668 545.836 12.6538 557.83 27.4493 557.83H230.089C244.885 557.83 256.879 545.836 256.879 531.04V28.2193C256.879 13.4238 244.885 1.42969 230.089 1.42969Z" fill="#F3F5F8" stroke="#94A2AB" stroke-opacity="0.3" stroke-width="1.37383"/>
  <path d="M1 258H258V401H1V258Z" fill="white"/>
  <path d="M150.405 274.816H22.6392C19.2249 274.816 16.457 277.584 16.457 280.998C16.457 284.412 19.2249 287.18 22.6392 287.18H150.405C153.819 287.18 156.587 284.412 156.587 280.998C156.587 277.584 153.819 274.816 150.405 274.816Z" fill="#94A2AB"/>
  <path d="M201.924 298.172H22.6392C19.2249 298.172 16.457 300.94 16.457 304.354C16.457 307.768 19.2249 310.536 22.6392 310.536H201.924C205.338 310.536 208.106 307.768 208.106 304.354C208.106 300.94 205.338 298.172 201.924 298.172Z" fill="#DFE6EC"/>
  <path fill-rule="evenodd" clip-rule="evenodd" d="M121.902 107.79C118.741 107.79 116.178 110.353 116.178 113.514C116.178 116.675 118.741 119.238 121.902 119.238C125.064 119.238 127.626 116.675 127.626 113.514C127.626 110.353 125.064 107.79 121.902 107.79ZM113.888 113.514C113.888 109.088 117.476 105.5 121.902 105.5C126.328 105.5 129.916 109.088 129.916 113.514C129.916 117.94 126.328 121.528 121.902 121.528C117.476 121.528 113.888 117.94 113.888 113.514ZM139.306 123.622C138.888 122.972 137.96 122.914 137.464 123.507L125.724 137.544C125.52 137.788 125.223 137.936 124.905 137.953C124.586 137.969 124.276 137.852 124.047 137.629L116.208 129.995C115.695 129.495 114.854 129.584 114.457 130.18L104.621 144.935C104.113 145.696 104.659 146.715 105.573 146.715H152.054C152.96 146.715 153.507 145.713 153.017 144.951L139.306 123.622ZM135.708 122.038C137.195 120.26 139.979 120.435 141.232 122.384L154.943 143.713C156.412 145.998 154.771 149.004 152.054 149.004H105.573C102.83 149.004 101.194 145.947 102.715 143.665L112.552 128.91C113.744 127.122 116.266 126.855 117.806 128.355L124.76 135.127L135.708 122.038Z" fill="#94A2AB"/>
  <path d="M26.3468 36.6179L21.0039 41.9608L26.3468 47.3038" stroke="#94A2AB" stroke-width="2.06074" stroke-linecap="round" stroke-linejoin="round"/>
  <path d="M228.026 43.3375C228.785 43.3375 229.4 42.7224 229.4 41.9637C229.4 41.2049 228.785 40.5898 228.026 40.5898C227.267 40.5898 226.652 41.2049 226.652 41.9637C226.652 42.7224 227.267 43.3375 228.026 43.3375Z" fill="#94A2AB"/>
  <path d="M232.835 43.3375C233.594 43.3375 234.209 42.7224 234.209 41.9637C234.209 41.2049 233.594 40.5898 232.835 40.5898C232.077 40.5898 231.461 41.2049 231.461 41.9637C231.461 42.7224 232.077 43.3375 232.835 43.3375Z" fill="#94A2AB"/>
  <path d="M237.643 43.3375C238.402 43.3375 239.017 42.7224 239.017 41.9637C239.017 41.2049 238.402 40.5898 237.643 40.5898C236.885 40.5898 236.27 41.2049 236.27 41.9637C236.27 42.7224 236.885 43.3375 237.643 43.3375Z" fill="#94A2AB"/>
  <path d="M115.371 241.845C117.647 241.845 119.492 239.999 119.492 237.723C119.492 235.447 117.647 233.602 115.371 233.602C113.095 233.602 111.25 235.447 111.25 237.723C111.25 239.999 113.095 241.845 115.371 241.845Z" fill="#94A2AB"/>
  <path d="M129.11 241.158C131.007 241.158 132.544 239.62 132.544 237.723C132.544 235.826 131.007 234.289 129.11 234.289C127.213 234.289 125.675 235.826 125.675 237.723C125.675 239.62 127.213 241.158 129.11 241.158Z" stroke="#94A2AB" stroke-width="1.37383"/>
  <path d="M142.848 241.158C144.745 241.158 146.282 239.62 146.282 237.723C146.282 235.826 144.745 234.289 142.848 234.289C140.951 234.289 139.413 235.826 139.413 237.723C139.413 239.62 140.951 241.158 142.848 241.158Z" stroke="#94A2AB" stroke-width="1.37383"/>
  <path d="M432.522 49.2227H229.883C214.708 49.2227 202.406 61.5243 202.406 76.6992V579.519C202.406 594.694 214.708 606.996 229.883 606.996H432.522C447.697 606.996 459.998 594.694 459.998 579.519V76.6992C459.998 61.5243 447.697 49.2227 432.522 49.2227Z" fill="white"/>
  <path d="M315.745 305.441H229.882C223.812 305.441 218.891 310.362 218.891 316.432V376.88C218.891 382.95 223.812 387.871 229.882 387.871H315.745C321.815 387.871 326.736 382.95 326.736 376.88V316.432C326.736 310.362 321.815 305.441 315.745 305.441Z" fill="#F3F5F8"/>
  <path d="M432.523 305.441H346.659C340.589 305.441 335.668 310.362 335.668 316.432V376.88C335.668 382.95 340.589 387.871 346.659 387.871H432.523C438.593 387.871 443.513 382.95 443.513 376.88V316.432C443.513 310.362 438.593 305.441 432.523 305.441Z" fill="#F3F5F8"/>
  <path d="M221.637 95.2457H232.627M221.637 85.6289H232.627H221.637ZM221.637 90.4373H232.627H221.637Z" stroke="#94A2AB" stroke-width="2.06074" stroke-linecap="round" stroke-linejoin="round"/>
  <path d="M310.937 86.3164H250.489C248.212 86.3164 246.367 88.1617 246.367 90.4379C246.367 92.7141 248.212 94.5594 250.489 94.5594H310.937C313.213 94.5594 315.058 92.7141 315.058 90.4379C315.058 88.1617 313.213 86.3164 310.937 86.3164Z" fill="#94A2AB"/>
  <path d="M407.791 97.6478C411.775 97.6478 415.004 94.4187 415.004 90.4352C415.004 86.4518 411.775 83.2227 407.791 83.2227C403.808 83.2227 400.579 86.4518 400.579 90.4352C400.579 94.4187 403.808 97.6478 407.791 97.6478Z" stroke="#94A2AB" stroke-width="2.06074"/>
  <path d="M435.271 97.6478C439.255 97.6478 442.484 94.4187 442.484 90.4352C442.484 86.4518 439.255 83.2227 435.271 83.2227C431.288 83.2227 428.059 86.4518 428.059 90.4352C428.059 94.4187 431.288 97.6478 435.271 97.6478Z" stroke="#94A2AB" stroke-width="2.06074"/>
  <path d="M202.406 261.48H459.998V294.452H202.406V261.48Z" fill="white"/>
  <path d="M326.05 271.785H225.073C221.659 271.785 218.891 274.553 218.891 277.967C218.891 281.381 221.659 284.149 225.073 284.149H326.05C329.464 284.149 332.232 281.381 332.232 277.967C332.232 274.553 329.464 271.785 326.05 271.785Z" fill="#94A2AB"/>
  <path d="M433.622 283.312L438.965 277.969L433.622 272.626" stroke="#94A2AB" stroke-width="2.06074" stroke-linecap="round" stroke-linejoin="round"/>
  <path d="M427.135 121H235.486C226.381 121 219 128.381 219 137.486V234.341C219 243.446 226.381 250.827 235.486 250.827H427.135C436.24 250.827 443.621 243.446 443.621 234.341V137.486C443.621 128.381 436.24 121 427.135 121Z" fill="#FE6C66"/>
  <path fill-rule="evenodd" clip-rule="evenodd" d="M324.441 164.161C321.28 164.161 318.717 166.724 318.717 169.885C318.717 173.047 321.28 175.609 324.441 175.609C327.603 175.609 330.166 173.047 330.166 169.885C330.166 166.724 327.603 164.161 324.441 164.161ZM316.427 169.885C316.427 165.459 320.015 161.871 324.441 161.871C328.867 161.871 332.455 165.459 332.455 169.885C332.455 174.311 328.867 177.899 324.441 177.899C320.015 177.899 316.427 174.311 316.427 169.885ZM341.845 179.993C341.427 179.344 340.499 179.285 340.003 179.878L328.263 193.915C328.059 194.159 327.762 194.307 327.444 194.324C327.125 194.34 326.815 194.223 326.586 194L318.747 186.366C318.234 185.866 317.393 185.955 316.996 186.551L307.16 201.306C306.652 202.067 307.198 203.086 308.112 203.086H354.593C355.499 203.086 356.046 202.084 355.556 201.322L341.845 179.993ZM338.247 178.409C339.734 176.631 342.518 176.806 343.771 178.755L357.482 200.084C358.951 202.369 357.31 205.376 354.593 205.376H308.112C305.369 205.376 303.733 202.318 305.254 200.036L315.091 185.281C316.283 183.493 318.806 183.227 320.345 184.726L327.299 191.498L338.247 178.409Z" fill="white"/>
  <path d="M317.809 241.242C320.086 241.242 321.931 239.397 321.931 237.121C321.931 234.845 320.086 233 317.809 233C315.533 233 313.688 234.845 313.688 237.121C313.688 239.397 315.533 241.242 317.809 241.242Z" fill="#FFAEAB"/>
  <path d="M331.547 240.556C333.444 240.556 334.982 239.018 334.982 237.121C334.982 235.224 333.444 233.687 331.547 233.687C329.651 233.687 328.113 235.224 328.113 237.121C328.113 239.018 329.651 240.556 331.547 240.556Z" stroke="#FFAEAB" stroke-width="1.37383"/>
  <path d="M345.286 240.556C347.183 240.556 348.721 239.018 348.721 237.121C348.721 235.224 347.183 233.687 345.286 233.687C343.389 233.687 341.852 235.224 341.852 237.121C341.852 239.018 343.389 240.556 345.286 240.556Z" stroke="#FFAEAB" stroke-width="1.37383"/>
  <path d="M432.522 49.9097H229.882C215.087 49.9097 203.093 61.9038 203.093 76.6993V579.52C203.093 594.316 215.087 606.31 229.882 606.31H432.522C447.318 606.31 459.312 594.316 459.312 579.52V76.6993C459.312 61.9038 447.318 49.9097 432.522 49.9097Z" stroke="#94A2AB" stroke-opacity="0.3" stroke-width="1.37383"/>
  </g>
  </g>
  <defs>
  <clipPath id="clip0_246_4030">
  <rect width="460" height="327" fill="white"/>
  </clipPath>
  </defs>
</svg>
